<svg width="256" height="256" viewBox="0 0 256 256" fill="none" xmlns="http://www.w3.org/2000/svg">
<rect width="256" height="256" rx="128" fill="#09090B"/>
<path d="M91.1477 109.273V124.045H53.1818V109.273H91.1477ZM60.4205 166V107.648C60.4205 102.97 61.2576 99.0919 62.9318 96.0142C64.6061 92.9366 66.9697 90.6345 70.0227 89.108C73.0758 87.5814 76.6705 86.8182 80.8068 86.8182C83.392 86.8182 85.9034 87.0151 88.3409 87.4091C90.803 87.803 92.625 88.1477 93.8068 88.4432L90.8523 103.068C90.1136 102.847 89.2519 102.674 88.267 102.551C87.2822 102.403 86.4205 102.33 85.6818 102.33C83.7614 102.33 82.4688 102.736 81.804 103.548C81.1392 104.361 80.8068 105.432 80.8068 106.761V166H60.4205ZM136.094 86.8182L111.719 177.375H94.4347L118.81 86.8182H136.094ZM141.578 166V90.3636H161.964V119.17H162.26C162.999 117.25 164.082 115.49 165.51 113.889C166.938 112.264 168.711 110.972 170.828 110.011C172.946 109.027 175.408 108.534 178.214 108.534C181.957 108.534 185.515 109.531 188.888 111.526C192.286 113.52 195.043 116.659 197.161 120.943C199.303 125.227 200.374 130.792 200.374 137.636C200.374 144.186 199.352 149.615 197.308 153.923C195.289 158.232 192.581 161.445 189.183 163.562C185.81 165.68 182.105 166.739 178.067 166.739C175.408 166.739 173.032 166.308 170.939 165.446C168.871 164.56 167.098 163.366 165.621 161.864C164.168 160.337 163.048 158.614 162.26 156.693H161.817V166H141.578ZM161.521 137.636C161.521 140.394 161.878 142.782 162.592 144.801C163.331 146.795 164.365 148.347 165.695 149.455C167.049 150.538 168.661 151.08 170.533 151.08C172.404 151.08 173.992 150.55 175.297 149.491C176.626 148.408 177.636 146.869 178.325 144.875C179.039 142.856 179.396 140.443 179.396 137.636C179.396 134.83 179.039 132.429 178.325 130.435C177.636 128.416 176.626 126.877 175.297 125.818C173.992 124.735 172.404 124.193 170.533 124.193C168.661 124.193 167.049 124.735 165.695 125.818C164.365 126.877 163.331 128.416 162.592 130.435C161.878 132.429 161.521 134.83 161.521 137.636Z" fill="white"/>
</svg>
