<svg width="181" height="37" viewBox="0 0 181 37" fill="none" xmlns="http://www.w3.org/2000/svg">
<path d="M35.3378 33.9582H33.9243V5.68799C33.9243 5.3131 33.7753 4.95357 33.5102 4.68848C33.2452 4.4234 32.8856 4.27448 32.5107 4.27448H22.6162C22.2413 4.27448 21.8817 4.4234 21.6167 4.68848C21.3516 4.95357 21.2027 5.3131 21.2027 5.68799V12.7555H12.7216C12.3467 12.7555 11.9872 12.9045 11.7221 13.1695C11.457 13.4346 11.3081 13.7942 11.3081 14.169V21.2366H4.24053C3.86565 21.2366 3.50611 21.3855 3.24103 21.6506C2.97594 21.9157 2.82702 22.2752 2.82702 22.6501V33.9582H1.41351C1.03862 33.9582 0.679092 34.1071 0.414008 34.3722C0.148923 34.6373 0 34.9968 0 35.3717C0 35.7466 0.148923 36.1061 0.414008 36.3712C0.679092 36.6363 1.03862 36.7852 1.41351 36.7852H35.3378C35.7126 36.7852 36.0722 36.6363 36.3373 36.3712C36.6023 36.1061 36.7513 35.7466 36.7513 35.3717C36.7513 34.9968 36.6023 34.6373 36.3373 34.3722C36.0722 34.1071 35.7126 33.9582 35.3378 33.9582ZM24.0297 7.1015H31.0972V33.9582H24.0297V7.1015ZM14.1351 15.5826H21.2027V33.9582H14.1351V15.5826ZM5.65404 24.0636H11.3081V33.9582H5.65404V24.0636Z" fill="white"/>
<path d="M57.6209 14.1448V18.2357H46.3936V14.1448H57.6209ZM48.7345 31.5994V13.2585C48.7345 11.91 48.9883 10.7925 49.4959 9.90618C50.0035 9.01224 50.708 8.34558 51.6095 7.90618C52.5111 7.45921 53.5527 7.23573 54.7345 7.23573C55.5073 7.23573 56.2345 7.29633 56.9164 7.41755C57.6058 7.53118 58.1171 7.63346 58.4505 7.72437L57.5641 11.7925C57.3595 11.7244 57.1095 11.6675 56.8141 11.6221C56.5262 11.5766 56.2535 11.5539 55.9959 11.5539C55.3444 11.5539 54.8974 11.6978 54.655 11.9857C54.4126 12.2736 54.2914 12.6675 54.2914 13.1675V31.5994H48.7345ZM60.2942 31.5994V14.1448H65.851V31.5994H60.2942ZM63.0783 12.1107C62.298 12.1107 61.6275 11.8532 61.0669 11.338C60.5063 10.8153 60.226 10.1865 60.226 9.45164C60.226 8.72436 60.5063 8.10315 61.0669 7.588C61.6275 7.06527 62.298 6.80391 63.0783 6.80391C63.8662 6.80391 64.5366 7.06527 65.0897 7.588C65.6503 8.10315 65.9306 8.72436 65.9306 9.45164C65.9306 10.1865 65.6503 10.8153 65.0897 11.338C64.5366 11.8532 63.8662 12.1107 63.0783 12.1107ZM74.9448 21.6448V31.5994H69.388V14.1448H74.672V17.3494H74.8652C75.2516 16.2812 75.9107 15.4441 76.8425 14.838C77.7743 14.2244 78.8842 13.9175 80.172 13.9175C81.3993 13.9175 82.4637 14.1941 83.3652 14.7471C84.2743 15.2925 84.9789 16.0577 85.4789 17.0425C85.9864 18.0198 86.2364 19.1638 86.2289 20.4744V31.5994H80.672V21.5653C80.6796 20.5956 80.4334 19.838 79.9334 19.2925C79.441 18.7471 78.7554 18.4744 77.8766 18.4744C77.2933 18.4744 76.7781 18.6032 76.3311 18.8607C75.8917 19.1107 75.5508 19.4706 75.3084 19.9403C75.0736 20.41 74.9523 20.9782 74.9448 21.6448ZM89.6692 31.5994V8.32664H95.226V17.1335H95.3397C95.5669 16.6032 95.8889 16.0918 96.3056 15.5994C96.7298 15.1069 97.2677 14.7054 97.9192 14.3948C98.5783 14.0766 99.3662 13.9175 100.283 13.9175C101.495 13.9175 102.628 14.2357 103.681 14.8721C104.741 15.5085 105.597 16.4895 106.249 17.8153C106.9 19.141 107.226 20.8304 107.226 22.8835C107.226 24.8607 106.912 26.516 106.283 27.8494C105.662 29.1827 104.821 30.1827 103.76 30.8494C102.707 31.516 101.537 31.8494 100.249 31.8494C99.37 31.8494 98.6086 31.7054 97.9647 31.4175C97.3207 31.1297 96.779 30.7509 96.3397 30.2812C95.9078 29.8115 95.5745 29.3077 95.3397 28.7698H95.1692V31.5994H89.6692ZM95.1124 22.8721C95.1124 23.8115 95.2374 24.6297 95.4874 25.3266C95.745 26.0236 96.1124 26.5653 96.5897 26.9516C97.0745 27.3304 97.654 27.5198 98.3283 27.5198C99.0101 27.5198 99.5897 27.3304 100.067 26.9516C100.544 26.5653 100.904 26.0236 101.146 25.3266C101.396 24.6297 101.521 23.8115 101.521 22.8721C101.521 21.9327 101.396 21.1183 101.146 20.4289C100.904 19.7395 100.544 19.2054 100.067 18.8266C99.5972 18.4478 99.0177 18.2585 98.3283 18.2585C97.6465 18.2585 97.0669 18.4441 96.5897 18.8153C96.1124 19.1865 95.745 19.7168 95.4874 20.4062C95.2374 21.0956 95.1124 21.9175 95.1124 22.8721ZM118.286 31.9289C116.452 31.9289 114.877 31.5539 113.558 30.8039C112.248 30.0463 111.236 28.9933 110.524 27.6448C109.82 26.2888 109.467 24.7168 109.467 22.9289C109.467 21.1335 109.82 19.5615 110.524 18.213C111.236 16.8569 112.248 15.8039 113.558 15.0539C114.877 14.2963 116.452 13.9175 118.286 13.9175C120.119 13.9175 121.691 14.2963 123.002 15.0539C124.32 15.8039 125.331 16.8569 126.036 18.213C126.748 19.5615 127.104 21.1335 127.104 22.9289C127.104 24.7168 126.748 26.2888 126.036 27.6448C125.331 28.9933 124.32 30.0463 123.002 30.8039C121.691 31.5539 120.119 31.9289 118.286 31.9289ZM118.32 27.7357C118.986 27.7357 119.551 27.5312 120.013 27.1221C120.475 26.713 120.827 26.1448 121.07 25.4175C121.32 24.6903 121.445 23.8494 121.445 22.8948C121.445 21.9251 121.32 21.0766 121.07 20.3494C120.827 19.6221 120.475 19.0539 120.013 18.6448C119.551 18.2357 118.986 18.0312 118.32 18.0312C117.63 18.0312 117.047 18.2357 116.57 18.6448C116.1 19.0539 115.74 19.6221 115.49 20.3494C115.248 21.0766 115.127 21.9251 115.127 22.8948C115.127 23.8494 115.248 24.6903 115.49 25.4175C115.74 26.1448 116.1 26.713 116.57 27.1221C117.047 27.5312 117.63 27.7357 118.32 27.7357ZM134.871 31.8948C133.757 31.8948 132.769 31.7092 131.905 31.338C131.049 30.9592 130.371 30.391 129.871 29.6335C129.378 28.8683 129.132 27.91 129.132 26.7585C129.132 25.7888 129.303 24.9706 129.644 24.3039C129.985 23.6372 130.454 23.0956 131.053 22.6789C131.651 22.2622 132.341 21.9478 133.121 21.7357C133.901 21.516 134.735 21.3683 135.621 21.2925C136.613 21.2016 137.413 21.1069 138.019 21.0085C138.625 20.9024 139.064 20.7547 139.337 20.5653C139.617 20.3683 139.757 20.0918 139.757 19.7357V19.6789C139.757 19.0956 139.557 18.6448 139.155 18.3266C138.753 18.0085 138.212 17.8494 137.53 17.8494C136.795 17.8494 136.204 18.0085 135.757 18.3266C135.31 18.6448 135.026 19.0842 134.905 19.6448L129.78 19.463C129.932 18.4024 130.322 17.4554 130.95 16.6221C131.587 15.7812 132.458 15.1221 133.564 14.6448C134.678 14.16 136.015 13.9175 137.575 13.9175C138.689 13.9175 139.716 14.0501 140.655 14.3153C141.594 14.5728 142.413 14.9516 143.11 15.4516C143.807 15.9441 144.344 16.5501 144.723 17.2698C145.11 17.9895 145.303 18.8115 145.303 19.7357V31.5994H140.075V29.1675H139.939C139.628 29.7585 139.231 30.2585 138.746 30.6675C138.269 31.0766 137.704 31.3835 137.053 31.588C136.409 31.7925 135.682 31.8948 134.871 31.8948ZM136.587 28.2585C137.185 28.2585 137.723 28.1372 138.2 27.8948C138.685 27.6524 139.072 27.3191 139.36 26.8948C139.647 26.463 139.791 25.963 139.791 25.3948V23.7357C139.632 23.8191 139.439 23.8948 139.212 23.963C138.992 24.0312 138.75 24.0956 138.485 24.1562C138.219 24.2168 137.947 24.2698 137.666 24.3153C137.386 24.3607 137.117 24.4024 136.86 24.4403C136.337 24.5236 135.89 24.6524 135.519 24.8266C135.155 25.0009 134.875 25.2282 134.678 25.5085C134.488 25.7812 134.394 26.1069 134.394 26.4857C134.394 27.0615 134.598 27.5009 135.007 27.8039C135.424 28.1069 135.95 28.2585 136.587 28.2585ZM148.7 31.5994V14.1448H154.098V17.3266H154.28C154.598 16.1751 155.117 15.3191 155.837 14.7585C156.557 14.1903 157.394 13.9062 158.348 13.9062C158.606 13.9062 158.871 13.9251 159.144 13.963C159.416 13.9933 159.67 14.0425 159.905 14.1107V18.9403C159.64 18.8494 159.291 18.7774 158.86 18.7244C158.435 18.6713 158.057 18.6448 157.723 18.6448C157.064 18.6448 156.469 18.7925 155.939 19.088C155.416 19.3759 155.003 19.7812 154.7 20.3039C154.405 20.8191 154.257 21.4251 154.257 22.1221V31.5994H148.7ZM167.638 31.8494C166.35 31.8494 165.18 31.516 164.127 30.8494C163.074 30.1827 162.233 29.1827 161.604 27.8494C160.975 26.516 160.661 24.8607 160.661 22.8835C160.661 20.8304 160.986 19.141 161.638 17.8153C162.289 16.4895 163.142 15.5085 164.195 14.8721C165.255 14.2357 166.396 13.9175 167.615 13.9175C168.532 13.9175 169.316 14.0766 169.967 14.3948C170.619 14.7054 171.157 15.1069 171.581 15.5994C172.005 16.0918 172.327 16.6032 172.547 17.1335H172.661V8.32664H178.217V31.5994H172.717V28.7698H172.547C172.312 29.3077 171.979 29.8115 171.547 30.2812C171.115 30.7509 170.574 31.1297 169.922 31.4175C169.278 31.7054 168.517 31.8494 167.638 31.8494ZM169.57 27.5198C170.244 27.5198 170.82 27.3304 171.297 26.9516C171.774 26.5653 172.142 26.0236 172.399 25.3266C172.657 24.6297 172.786 23.8115 172.786 22.8721C172.786 21.9175 172.657 21.0956 172.399 20.4062C172.149 19.7168 171.782 19.1865 171.297 18.8153C170.82 18.4441 170.244 18.2585 169.57 18.2585C168.88 18.2585 168.297 18.4478 167.82 18.8266C167.342 19.2054 166.979 19.7395 166.729 20.4289C166.486 21.1183 166.365 21.9327 166.365 22.8721C166.365 23.8115 166.49 24.6297 166.74 25.3266C166.99 26.0236 167.35 26.5653 167.82 26.9516C168.297 27.3304 168.88 27.5198 169.57 27.5198Z" fill="white"/>
</svg>
